# xmcd
#
# Track frame offsets:
#	150
#	16269
#	37630
#	52384
#	78623
#	97771
#	115437
#	134493
#	156062
#	177892
#	191400
#
# Disc length: 2863 seconds
#
# Revision: 1
# Processed by: cddbd v1.4PL0 Copyright (c) Steve Scherf et al.
# Submitted via: audiograbber 1.80
#
DISCID=870b2d0b
DTITLE=Kadda Cherif Hadria - Djezair
DYEAR=1900
DGENRE=
TTITLE0=Diriktabri
TTITLE1=Djezaïr
TTITLE2=Waïwaï
TTITLE3=Brit
TTITLE4=Ma Goult Wellou
TTITLE5=Bensidi
TTITLE6=Jibouha
TTITLE7=Awiliya
TTITLE8=Yalmima
TTITLE9=Tigdi
TTITLE10=Echdek
EXTD=
EXTT0=
EXTT1=
EXTT2=
EXTT3=
EXTT4=
EXTT5=
EXTT6=
EXTT7=
EXTT8=
EXTT9=
EXTT10=
PLAYORDER=
